# xmcd CD database file
#
# Track frame offsets:
#	150
#	15745
#	34365
#	51897
#	74737
#	89000
#	115580
#	153230
#	170965
#
# Disc length: 2493 seconds
#
# Revision: 0
# Processed by: cddbd v1.5.1PL0 Copyright (c) Steve Scherf et al.
# Submitted via: CDex 1.51
#
DISCID=7e09bb09
DTITLE=The Kentucky Headhunters - Dirty Pickin (Live In New York 1993)
DYEAR=1993
DGENRE=Country
TTITLE0=The Ghost Of Hank Williams
TTITLE1=Just Ask Fo' Lucy
TTITLE2=Honky Tonk Walkin'
TTITLE3=Walk Softly (On This Heart Of Mine)
TTITLE4=Dixiefriend
TTITLE5=Little Red Rooster
TTITLE6=Freedom Stomp
TTITLE7=Sirit In The Sky
TTITLE8=Dumas Walker
EXTD=YEAR: 1993
EXTT0=
EXTT1=
EXTT2=
EXTT3=
EXTT4=
EXTT5=
EXTT6=
EXTT7=
EXTT8=
PLAYORDER=
